<?xml version="1.0" encoding="utf-8"?>
<!-- Generator: Adobe Illustrator 27.0.0, SVG Export Plug-In . SVG Version: 6.00 Build 0)  -->
<svg version="1.1" id="Layer_1" xmlns="http://www.w3.org/2000/svg" xmlns:xlink="http://www.w3.org/1999/xlink" x="0px" y="0px"
	 viewBox="0 0 384 512" style="enable-background:new 0 0 384 512;" xml:space="preserve">
<path d="M209.7,254.8c2.4-3.5,3.8-7.7,3.8-12.3c0-11.9-9.6-21.6-21.6-21.6s-21.6,9.6-21.6,21.6c0,4.6,1.4,8.8,3.8,12.3
	c0.6,0.9,1.4,1.9,2.2,3l0,0c2.2,3,4.8,6.6,6.7,10.1c1.8,3.2,2.6,6.5,3.1,9.7H178c-0.4-2-1-4-2-5.8c-1.7-3-3.7-5.9-5.8-8.7l0,0l0,0
	c-0.9-1.2-1.8-2.4-2.6-3.6c-3.3-4.8-5.3-10.6-5.3-16.9c0-16.4,13.3-29.6,29.6-29.6s29.6,13.3,29.6,29.6c0,6.3-2,12.1-5.3,16.9
	c-0.8,1.2-1.7,2.4-2.6,3.6l0,0l0,0c-2.1,2.8-4.1,5.7-5.8,8.7c-1,1.8-1.6,3.8-2,5.8h-8.2c0.4-3.1,1.3-6.5,3.1-9.7
	c1.9-3.5,4.5-7.1,6.7-10.1l0,0l0,0l0,0C208.4,256.7,209.1,255.7,209.7,254.8L209.7,254.8z M192,234.4c-4.5,0-8.1,3.6-8.1,8.1
	c0,1.5-1.2,2.7-2.7,2.7s-2.7-1.2-2.7-2.7c0-7.4,6-13.5,13.5-13.5c1.5,0,2.7,1.2,2.7,2.7C194.7,233.2,193.5,234.4,192,234.4z
	 M192,299.1c-7.4,0-13.5-6-13.5-13.5v-2.7h26.9v2.7C205.5,293.1,199.4,299.1,192,299.1z"/>
</svg>
